<svg xmlns="http://www.w3.org/2000/svg" width="860" height="460" viewBox="0 0 860 460">
<rect width="100%" height="100%" fill="white"/>
<text x="430.0" y="34" text-anchor="middle" font-family="Arial" font-size="22" font-weight="700">Full Debate Mean Score by Category</text>
<text x="22" y="245.0" transform="rotate(-90 22 245.0)" text-anchor="middle" font-family="Arial" font-size="13">Mean score</text>
<line x1="80" y1="390" x2="820" y2="390" stroke="#111827" stroke-width="1"/>
<line x1="80" y1="390" x2="80" y2="100" stroke="#111827" stroke-width="1"/>
<line x1="76" y1="390.0" x2="820" y2="390.0" stroke="#e5e7eb"/>
<text x="70" y="394.0" text-anchor="end" font-family="Arial" font-size="11">0.0</text>
<line x1="76" y1="332.0" x2="820" y2="332.0" stroke="#e5e7eb"/>
<text x="70" y="336.0" text-anchor="end" font-family="Arial" font-size="11">0.2</text>
<line x1="76" y1="274.0" x2="820" y2="274.0" stroke="#e5e7eb"/>
<text x="70" y="278.0" text-anchor="end" font-family="Arial" font-size="11">0.4</text>
<line x1="76" y1="216.0" x2="820" y2="216.0" stroke="#e5e7eb"/>
<text x="70" y="220.0" text-anchor="end" font-family="Arial" font-size="11">0.6</text>
<line x1="76" y1="158.0" x2="820" y2="158.0" stroke="#e5e7eb"/>
<text x="70" y="162.0" text-anchor="end" font-family="Arial" font-size="11">0.8</text>
<line x1="76" y1="100.0" x2="820" y2="100.0" stroke="#e5e7eb"/>
<text x="70" y="104.0" text-anchor="end" font-family="Arial" font-size="11">1.0</text>
<rect x="104" y="114.4" width="126" height="275.6" fill="#6b7280"/>
<text x="167.0" y="106.4" text-anchor="middle" font-family="Arial" font-size="12">95%</text>
<text x="167.0" y="412" text-anchor="middle" font-family="Arial" font-size="11">Logic Puzzle Constraint Satisfaction</text>
<rect x="248" y="113.8" width="126" height="276.2" fill="#2563eb"/>
<text x="311.0" y="105.8" text-anchor="middle" font-family="Arial" font-size="12">95%</text>
<text x="311.0" y="412" text-anchor="middle" font-family="Arial" font-size="11">Mathematical Logical Reasoning</text>
<rect x="392" y="118.3" width="126" height="271.7" fill="#dc2626"/>
<text x="455.0" y="110.3" text-anchor="middle" font-family="Arial" font-size="12">94%</text>
<text x="455.0" y="412" text-anchor="middle" font-family="Arial" font-size="11">Philosophical Ethical Reasoning</text>
<rect x="536" y="111.3" width="126" height="278.7" fill="#16a34a"/>
<text x="599.0" y="103.3" text-anchor="middle" font-family="Arial" font-size="12">96%</text>
<text x="599.0" y="412" text-anchor="middle" font-family="Arial" font-size="11">Physics Scientific Reasoning</text>
<rect x="680" y="112.6" width="126" height="277.4" fill="#7c3aed"/>
<text x="743.0" y="104.6" text-anchor="middle" font-family="Arial" font-size="12">96%</text>
<text x="743.0" y="412" text-anchor="middle" font-family="Arial" font-size="11">Strategic Game Theory Reasoning</text>
</svg>