<svg xmlns="http://www.w3.org/2000/svg" width="860" height="460" viewBox="0 0 860 460">
<rect width="100%" height="100%" fill="white"/>
<text x="430.0" y="34" text-anchor="middle" font-family="Arial" font-size="22" font-weight="700">Full Debate Accuracy by Difficulty</text>
<text x="22" y="245.0" transform="rotate(-90 22 245.0)" text-anchor="middle" font-family="Arial" font-size="13">Accuracy</text>
<line x1="80" y1="390" x2="820" y2="390" stroke="#111827" stroke-width="1"/>
<line x1="80" y1="390" x2="80" y2="100" stroke="#111827" stroke-width="1"/>
<line x1="76" y1="390.0" x2="820" y2="390.0" stroke="#e5e7eb"/>
<text x="70" y="394.0" text-anchor="end" font-family="Arial" font-size="11">0.0</text>
<line x1="76" y1="332.0" x2="820" y2="332.0" stroke="#e5e7eb"/>
<text x="70" y="336.0" text-anchor="end" font-family="Arial" font-size="11">0.2</text>
<line x1="76" y1="274.0" x2="820" y2="274.0" stroke="#e5e7eb"/>
<text x="70" y="278.0" text-anchor="end" font-family="Arial" font-size="11">0.4</text>
<line x1="76" y1="216.0" x2="820" y2="216.0" stroke="#e5e7eb"/>
<text x="70" y="220.0" text-anchor="end" font-family="Arial" font-size="11">0.6</text>
<line x1="76" y1="158.0" x2="820" y2="158.0" stroke="#e5e7eb"/>
<text x="70" y="162.0" text-anchor="end" font-family="Arial" font-size="11">0.8</text>
<line x1="76" y1="100.0" x2="820" y2="100.0" stroke="#e5e7eb"/>
<text x="70" y="104.0" text-anchor="end" font-family="Arial" font-size="11">1.0</text>
<rect x="104" y="100.0" width="222" height="290.0" fill="#6b7280"/>
<text x="215.0" y="92.0" text-anchor="middle" font-family="Arial" font-size="12">100%</text>
<text x="215.0" y="412" text-anchor="middle" font-family="Arial" font-size="11">Easy</text>
<rect x="344" y="100.0" width="222" height="290.0" fill="#2563eb"/>
<text x="455.0" y="92.0" text-anchor="middle" font-family="Arial" font-size="12">100%</text>
<text x="455.0" y="412" text-anchor="middle" font-family="Arial" font-size="11">Medium</text>
<rect x="584" y="100.0" width="222" height="290.0" fill="#dc2626"/>
<text x="695.0" y="92.0" text-anchor="middle" font-family="Arial" font-size="12">100%</text>
<text x="695.0" y="412" text-anchor="middle" font-family="Arial" font-size="11">Hard</text>
</svg>